<?xml version="1.0" encoding="UTF-8" standalone="no"?>
<!-- Created with Inkscape (http://www.inkscape.org/) -->

<svg
   xmlns:dc="http://purl.org/dc/elements/1.1/"
   xmlns:cc="http://creativecommons.org/ns#"
   xmlns:rdf="http://www.w3.org/1999/02/22-rdf-syntax-ns#"
   xmlns:svg="http://www.w3.org/2000/svg"
   xmlns="http://www.w3.org/2000/svg"
   xmlns:sodipodi="http://sodipodi.sourceforge.net/DTD/sodipodi-0.dtd"
   xmlns:inkscape="http://www.inkscape.org/namespaces/inkscape"
   width="80mm"
   height="71mm"
   viewBox="0 0 283.46454 251.57466"
   id="svg4435"
   version="1.1"
   inkscape:version="0.91 r13725"
   sodipodi:docname="cng.svg">
  <defs
     id="defs4437" />
  <sodipodi:namedview
     id="base"
     pagecolor="#ffffff"
     bordercolor="#666666"
     borderopacity="1.0"
     inkscape:pageopacity="0.0"
     inkscape:pageshadow="2"
     inkscape:zoom="2"
     inkscape:cx="291.5"
     inkscape:cy="120"
     inkscape:document-units="px"
     inkscape:current-layer="layer1"
     showgrid="false"
     inkscape:window-width="1855"
     inkscape:window-height="1056"
     inkscape:window-x="65"
     inkscape:window-y="24"
     inkscape:window-maximized="1" />
  <metadata
     id="metadata4440">
    <rdf:RDF>
      <cc:Work
         rdf:about="">
        <dc:format>image/svg+xml</dc:format>
        <dc:type
           rdf:resource="http://purl.org/dc/dcmitype/StillImage" />
        <dc:title />
      </cc:Work>
    </rdf:RDF>
  </metadata>
  <g
     inkscape:label="Layer 1"
     inkscape:groupmode="layer"
     id="layer1"
     transform="translate(0,-800.78798)">
    <path
       style="fill:#000000;stroke:none"
       d="m 123.55287,837.64479 c -12.56762,3.08675 -28.79416,9.62339 -40.407273,16.16004 l -11.454046,6.53666 -0.477242,8.53392 c -0.477257,8.3524 -0.636342,8.53397 -7.795105,11.25757 -3.977096,1.63415 -10.49953,5.08405 -14.317541,7.62608 -7.795104,5.08407 -7.476934,3.63148 -4.13618,20.15467 0.477256,2.72359 -0.159085,4.17612 -2.227169,4.90247 -1.749926,0.54471 -5.40885,3.81303 -8.272361,7.26295 -5.09068,5.81034 -5.09068,6.35505 -3.181669,13.43642 1.749913,7.08138 1.590828,7.62609 -3.181681,14.70745 -2.863511,3.99461 -4.772509,8.1708 -4.13618,9.26024 1.59084,3.08675 18.294635,14.70745 28.63508,20.15465 13.522126,6.8998 39.293698,15.61532 53.293067,17.79421 13.52211,2.17888 57.11107,3.99461 62.04266,2.54202 2.8635,-0.90786 2.54535,-1.81574 -3.97707,-9.9866 -29.74868,-37.76721 -20.99907,-97.86802 16.54469,-114.20963 17.81738,-7.80765 35.95293,-4.53933 46.45247,8.71553 8.90869,11.07597 10.97678,16.70476 7.95419,22.15195 -1.11358,1.99732 -2.38626,1.99732 -7.31786,0.18159 -6.36335,-2.36047 -25.61248,-3.26835 -27.3624,-1.08945 -2.0681,2.36043 5.24975,6.1735 13.84027,7.08136 4.9316,0.36314 11.9313,2.54202 15.43113,4.53934 l 6.52243,3.81302 1.90902,-7.80763 c 2.06808,-8.3524 9.7041,-19.60995 10.8177,-15.7969 1.11357,3.99463 -1.27268,11.07599 -6.36335,17.61262 l -5.09068,6.53666 5.88608,6.35507 c 3.65893,3.81302 5.8861,7.80764 5.8861,10.71283 0,6.89979 3.9771,14.3443 11.9313,21.60724 3.97707,3.81302 7.15876,7.80766 7.15876,9.07866 0,1.27103 1.43176,2.72361 3.34075,3.26833 5.56795,1.63411 2.54534,5.81034 -5.09069,6.71822 -4.93158,0.72628 -7.15875,1.81574 -7.47692,3.99461 -0.31817,1.99731 0.47725,3.26832 1.90901,3.26832 4.61342,0 2.54534,3.26826 -3.81802,6.17349 -3.49984,1.63418 -8.43144,2.90518 -10.8177,2.90518 -2.38625,0 -5.40885,0.90787 -6.68151,1.81575 -1.74993,1.27099 0.31817,1.81573 6.8406,1.81573 13.99937,0 22.90806,-3.26834 29.90775,-10.89442 5.24976,-5.62879 6.20427,-7.80766 6.20427,-14.3443 0,-6.53666 -0.63635,-7.80766 -4.29527,-9.4418 -11.93129,-5.08408 -21.15814,-17.97578 -21.15814,-29.23334 0,-4.90248 -1.27266,-8.53396 -4.61343,-12.71015 -4.29526,-5.81034 -4.45434,-6.17349 -1.59084,-9.4418 5.72702,-6.71823 5.88611,-24.694 0.15909,-24.694 -1.43176,0 -4.77252,1.99731 -7.31786,4.35776 l -4.77251,4.1762 -4.13617,-10.16812 c -8.11328,-19.60993 -25.61249,-34.31737 -51.70223,-43.7592 -12.56761,-4.53941 -46.92972,-6.53664 -59.49732,-3.63147 z m 51.22496,12.71015 c 6.68152,1.81574 13.99938,4.53933 16.38564,5.99192 l 4.29525,2.54203 -6.68151,1.08943 c -9.8632,1.45259 -25.6125,10.71287 -33.40758,19.60993 -14.15848,16.16006 -21.63541,45.57494 -17.8174,70.08735 0.9545,6.71822 3.97712,17.24949 6.52243,23.24134 2.54534,5.99199 4.45435,11.07604 4.13619,11.25763 -0.31816,0.36314 -5.72702,-2.36048 -12.24946,-6.17351 -13.84028,-7.80765 -29.58956,-24.87556 -37.861926,-40.85403 -9.54503,-18.70206 -20.203635,-62.46125 -16.703794,-68.81632 1.908999,-3.63146 23.86256,-14.16273 36.74835,-17.7942 17.02196,-4.90248 40.72543,-4.90248 56.63381,-0.18157 z m -99.586427,49.7511 c 4.613427,24.694 17.976467,52.65632 33.566677,69.36107 4.93159,5.44722 8.27235,9.80498 7.47693,9.80498 -0.63633,0 -5.8861,-2.90518 -11.45403,-6.53666 -11.454024,-7.26294 -25.771564,-22.5151 -33.725757,-35.76997 -6.36335,-10.71283 -16.067465,-32.86481 -16.067465,-36.67783 0,-2.90516 11.294956,-9.80499 15.90838,-9.98654 1.749926,0 3.022596,3.08676 4.295265,9.80495 z m -20.044561,31.23063 c 6.36335,12.89173 22.589902,36.31471 27.044243,38.85674 1.749926,1.27099 2.86351,2.54202 2.386254,3.08675 -1.749913,2.17886 -24.976145,-16.3416 -33.248507,-26.69129 -10.976772,-13.43645 -12.090357,-17.06792 -7.158764,-21.78883 2.068084,-1.99735 4.136181,-3.44988 4.77251,-3.63146 0.477256,0 3.340753,4.53934 6.204264,10.16809 z m -6.363349,28.32546 10.181359,11.25758 -11.135858,-6.89982 c -13.840298,-8.53393 -14.476626,-9.26021 -11.931286,-12.89169 1.113584,-1.4526 2.227169,-2.7236 2.386255,-2.7236 0.31817,0 4.931594,5.08404 10.49953,11.25753 z"
       id="path3414"
       inkscape:connector-curvature="0" />
    <path
       style="fill:#000000;stroke:none"
       d="m 173.50517,899.1982 c -1.43175,2.90517 2.54534,14.16271 6.84061,18.88364 4.61343,5.08405 12.40852,8.53392 19.09004,8.53392 4.93158,0 3.02259,-3.08672 -2.86351,-4.5393 -5.09068,-1.27104 -14.31755,-9.98661 -14.31755,-13.61802 0,-3.81305 9.54504,-0.54471 17.18106,5.62877 3.818,3.08676 7.31784,5.08404 7.7951,4.53933 1.59084,-1.63416 -7.63602,-11.98383 -13.99936,-15.61532 -6.20428,-3.63146 -18.45373,-5.99197 -19.72639,-3.81302 z"
       id="path3416"
       inkscape:connector-curvature="0" />
    <path
       style="fill:#000000;stroke:none"
       d="m 1.5356198,916.62923 c 2.8634977,17.61262 11.9312732,29.95964 22.1126452,29.95964 5.090679,0 5.090679,-0.54474 1.749913,-6.35508 -1.431755,-2.54202 -2.54534,-7.26294 -2.704425,-10.71284 -0.159086,-5.44719 -0.9545,-6.53664 -7.31785,-9.80495 -4.13618,-2.17889 -9.0677741,-5.26565 -11.135858,-7.08138 l -3.81802272,-3.08673 1.11359752,7.08134 z m 14.9538682,15.25219 c 0.636341,4.90248 -1.908998,3.81301 -4.613423,-1.81573 -1.431756,-3.26834 -1.272671,-3.63149 1.27267,-3.08676 1.590827,0.36314 3.022583,2.54202 3.340753,4.90249 z"
       id="path3418"
       inkscape:connector-curvature="0" />
    <path
       style="fill:#000000;stroke:none"
       d="m 206.11733,942.04952 c 0,0.54473 2.54534,1.99732 5.56796,3.44989 6.52243,3.26833 7.7951,7.44449 1.43175,4.53935 -5.72702,-2.36046 -6.99971,-0.36316 -2.54534,3.81304 3.02257,2.7236 4.45433,3.08676 8.27234,1.45258 6.52243,-2.54202 6.20426,-7.62608 -0.63632,-11.25754 -5.09068,-2.72362 -12.09038,-3.99463 -12.09038,-1.99732 z"
       id="path3420"
       inkscape:connector-curvature="0" />
    <path
       style="fill:#000000;stroke:none"
       d="m 178.43676,951.30976 c -2.06808,6.1735 -0.79542,18.33892 2.70443,26.14659 4.93159,11.07598 12.7267,15.43375 27.3624,15.43375 6.20426,0 11.45403,-0.72631 11.93129,-1.63417 0.47727,-0.90788 -1.90901,-3.44991 -5.40885,-5.62877 -3.34074,-2.17889 -7.15877,-6.17351 -8.43143,-8.71554 -3.02261,-6.8998 -4.13619,-6.17349 -3.34078,2.54203 0.47726,7.08136 0.47726,7.26295 -3.49983,6.17351 -8.74959,-2.54206 -14.63572,-12.52858 -16.7038,-28.6886 -1.11356,-8.71554 -2.8635,-10.89443 -4.61343,-5.6288 z"
       id="path3422"
       inkscape:connector-curvature="0" />
    <path
       style="fill:#000000;stroke:none"
       d="m 29.057102,987.26131 c 1.909011,3.44989 24.4989,13.61799 40.248195,18.15729 26.726083,7.4446 50.747723,10.7129 79.541883,10.8944 20.68089,0.1816 28.15782,-0.5447 35.15752,-3.0867 13.99936,-4.7209 13.99936,-11.4391 0.15908,-19.97307 -9.86318,-6.17348 -10.97678,-6.17348 -6.8406,-0.18157 3.81801,5.44721 3.34077,6.89979 -3.49985,11.25754 -4.45433,2.7236 -9.54501,3.0868 -37.70285,2.9052 -28.63507,-0.1816 -35.31659,-0.7263 -54.883894,-5.0841 -12.249447,-2.72357 -29.271411,-7.44448 -37.702859,-10.71279 -8.431433,-3.26833 -14.953868,-5.08407 -14.476625,-4.1762 z"
       id="path3424"
       inkscape:connector-curvature="0" />
  </g>
</svg>
